<?xml version="1.0" standalone="no"?>
<!DOCTYPE svg PUBLIC "-//W3C//DTD SVG 20010904//EN"
 "http://www.w3.org/TR/2001/REC-SVG-20010904/DTD/svg10.dtd">
<svg version="1.0" xmlns="http://www.w3.org/2000/svg"
 width="828.000000pt" height="727.000000pt" viewBox="0 0 828.000000 727.000000"
 preserveAspectRatio="xMidYMid meet">
<metadata>
Created by potrace 1.16, written by Peter Selinger 2001-2019
</metadata>
<g transform="translate(0.000000,727.000000) scale(0.100000,-0.100000)"
fill="#FFFFFF" stroke="none">
<path d="M4122 6598 c-22 -28 -132 -266 -141 -308 -12 -53 1 -124 27 -154 16
-18 16 -20 -13 -40 -64 -45 -113 -102 -124 -142 l-11 -41 -102 -6 c-57 -3
-136 -16 -177 -27 -157 -44 -453 -173 -639 -278 -48 -27 -112 -63 -142 -80
-30 -16 -131 -73 -225 -127 -202 -116 -492 -263 -602 -306 -98 -38 -216 -49
-280 -26 -46 17 -100 72 -108 110 -12 51 -34 87 -62 98 -57 21 -68 -42 -25
-142 46 -104 121 -172 229 -206 29 -9 53 -23 53 -30 0 -7 -20 -50 -45 -95 -55
-98 -118 -230 -190 -393 -29 -66 -64 -146 -79 -177 -14 -31 -52 -121 -84 -200
-33 -79 -68 -163 -80 -188 -11 -25 -57 -130 -102 -235 -113 -260 -282 -600
-380 -760 -36 -59 -38 -60 -87 -65 -47 -5 -83 -22 -83 -40 0 -19 107 -166 154
-212 200 -197 535 -298 978 -298 314 1 542 55 739 176 189 116 363 259 398
326 18 34 8 58 -23 58 -28 0 -32 6 -178 275 -48 89 -158 310 -158 319 0 5
-107 235 -125 269 -8 16 -15 33 -15 38 0 5 -9 28 -19 52 -11 23 -38 87 -61
142 -23 55 -48 114 -56 130 -7 17 -51 118 -97 225 -152 350 -241 539 -286 605
-33 48 -28 61 25 69 67 9 208 59 337 120 145 68 161 76 292 131 61 26 128 55
151 65 65 30 483 175 614 213 104 31 461 84 481 71 3 -2 9 -28 12 -57 9 -93
59 -165 135 -196 28 -12 30 -16 21 -34 -8 -14 -10 -420 -8 -1403 l4 -1384 -22
0 c-36 0 -80 -47 -103 -108 -46 -120 -62 -250 -64 -500 -1 -221 0 -234 19
-248 16 -12 80 -14 384 -12 l366 3 14 30 c11 22 14 75 15 210 0 184 -6 224
-57 387 -8 24 -20 63 -26 88 -7 25 -22 65 -34 90 -18 37 -29 47 -60 54 l-38
10 5 65 c14 169 16 611 7 1196 -6 352 -11 832 -11 1066 -1 455 -3 469 -51 469
-10 0 -19 5 -19 10 0 6 20 10 43 10 28 0 52 7 65 19 32 27 73 123 79 187 l6
56 31 -6 c17 -3 58 -8 91 -11 130 -14 343 -45 450 -66 155 -31 530 -169 840
-309 81 -36 171 -77 230 -105 120 -56 257 -103 335 -114 41 -7 76 -13 78 -15
1 -2 -11 -28 -29 -57 -17 -30 -57 -108 -89 -174 -102 -213 -148 -317 -315
-710 -75 -176 -145 -339 -156 -362 -10 -24 -19 -44 -19 -47 0 -3 -102 -219
-171 -361 -21 -44 -60 -118 -86 -165 -27 -47 -66 -118 -88 -158 -31 -55 -46
-73 -67 -78 -36 -7 -35 -18 7 -69 182 -223 461 -394 740 -453 175 -38 534 -41
743 -8 325 53 554 180 694 386 32 47 58 93 58 102 0 23 -30 38 -77 38 -21 0
-43 4 -49 8 -19 14 -138 228 -246 444 -59 119 -108 219 -108 222 0 3 -13 33
-29 68 -16 35 -41 92 -56 128 -15 36 -50 117 -77 180 -28 63 -66 153 -85 200
-35 87 -83 197 -133 305 -15 33 -44 96 -63 140 -56 127 -112 243 -166 341 -50
92 -52 114 -11 114 23 0 98 50 141 93 68 68 109 195 74 230 -26 26 -44 20 -61
-20 -46 -110 -59 -128 -109 -155 -91 -50 -202 -36 -402 51 -105 46 -403 200
-493 256 -19 12 -60 35 -90 52 -30 17 -104 59 -165 93 -186 106 -404 215 -530
265 -246 97 -355 121 -501 111 l-92 -7 -6 34 c-13 72 -64 129 -172 193 -17 10
-17 12 4 35 50 53 42 133 -28 301 -55 131 -65 148 -85 148 -7 0 -17 -6 -23
-12z m67 -248 c27 -60 32 -84 28 -120 -9 -83 -86 -117 -131 -57 -40 55 -19
181 42 250 19 22 21 20 61 -73z m69 -332 c48 -32 67 -58 91 -124 13 -38 23
-49 46 -56 17 -5 41 -6 54 -3 13 3 64 6 115 6 105 0 198 -22 344 -80 120 -48
797 -382 987 -487 164 -91 465 -233 547 -258 31 -10 78 -21 104 -24 66 -10 60
-26 -11 -30 -90 -5 -180 19 -332 89 -24 10 -45 19 -47 19 -3 0 -52 23 -111 50
-59 28 -108 50 -110 50 -2 0 -50 22 -107 49 -117 56 -341 149 -450 187 -40 14
-82 29 -93 34 -130 59 -598 160 -746 160 -99 0 -117 -16 -130 -122 -10 -88
-34 -155 -59 -168 -10 -6 -98 -10 -194 -10 l-176 0 -44 60 c-38 51 -45 69 -51
125 -10 91 -30 115 -99 115 -30 0 -84 -7 -122 -14 -38 -8 -118 -24 -179 -36
-149 -29 -300 -72 -480 -138 -180 -66 -279 -108 -565 -239 -294 -135 -421
-187 -494 -203 -58 -13 -171 -10 -171 4 0 6 32 16 70 23 88 16 90 17 275 99
132 58 355 176 658 348 183 103 558 279 702 328 114 38 183 54 330 73 68 9
127 18 132 21 4 3 8 22 8 42 0 49 30 96 77 122 58 31 174 25 231 -12z m38
-1660 c11 -1010 10 -1709 -2 -1798 l-9 -65 -120 3 c-76 2 -122 8 -127 15 -4 6
-7 552 -7 1212 -1 660 -4 1262 -7 1338 l-7 137 135 0 135 0 9 -842z m-2364
354 c102 -208 198 -410 198 -417 0 -3 9 -24 19 -48 11 -23 68 -154 126 -292
203 -477 208 -489 330 -740 45 -93 114 -226 153 -295 39 -69 68 -128 66 -132
-6 -10 -1978 -11 -1987 -1 -7 6 8 34 85 168 35 60 203 396 240 480 15 33 48
110 73 170 26 61 58 135 72 165 14 30 44 102 68 160 23 58 59 143 80 190 20
47 48 112 62 145 80 191 303 634 317 629 6 -3 50 -85 98 -182z m4766 -27 c55
-110 132 -272 172 -360 39 -88 80 -179 91 -203 11 -23 37 -87 59 -142 22 -54
64 -154 94 -222 29 -68 73 -168 96 -223 60 -143 237 -501 309 -626 33 -58 61
-111 61 -118 0 -15 -1976 -16 -1985 -1 -3 6 32 79 78 163 76 136 174 331 237
472 12 28 39 88 60 135 21 47 62 141 90 210 29 69 60 143 70 165 10 22 25 56
33 75 8 19 26 62 40 95 75 179 142 324 248 538 137 276 129 261 139 250 5 -4
53 -98 108 -208z m172 -1961 c586 -4 758 -9 768 -18 45 -44 -72 -167 -248
-262 -226 -122 -579 -182 -925 -155 -274 21 -418 70 -599 206 -29 22 -66 49
-81 60 -64 46 -147 118 -152 132 -12 31 16 38 195 44 97 4 202 5 232 3 30 -2
395 -7 810 -10z m-4089 -14 l24 -19 -47 -46 c-93 -91 -345 -231 -520 -290
-242 -81 -406 -90 -750 -45 -200 27 -366 90 -527 200 -137 93 -199 171 -158
197 12 8 633 17 1498 21 441 2 458 1 480 -18z m1475 -323 c56 -2 79 -8 108
-27 37 -25 87 -94 100 -140 4 -14 14 -50 23 -80 22 -74 25 -438 4 -487 -18
-43 -33 -45 -371 -41 l-275 3 -3 189 c-3 237 16 425 49 493 38 76 100 101 234
96 33 -2 92 -4 131 -6z"/>
<path d="M4096 5909 c-84 -66 -67 -173 29 -185 53 -7 91 8 115 48 28 46 26 90
-6 127 -21 26 -33 31 -69 31 -28 0 -51 -7 -69 -21z"/>
<path d="M6758 2613 c-216 -3 -248 -5 -248 -19 0 -14 44 -15 394 -12 217 2
398 6 402 11 24 23 -52 26 -548 20z"/>
<path d="M1705 2580 c-4 -6 -5 -13 -2 -16 29 -29 606 -40 721 -13 70 17 87 39
29 39 -21 0 -113 -7 -205 -14 -161 -14 -273 -12 -480 9 -36 4 -59 2 -63 -5z"/>
<path d="M3925 1553 c-547 -15 -743 -60 -996 -228 -190 -127 -299 -271 -299
-396 l0 -59 1538 3 1537 2 3 32 c6 64 -91 218 -217 343 -169 169 -375 257
-686 294 -123 15 -521 19 -880 9z m960 -78 c237 -35 431 -132 593 -296 75 -76
148 -197 140 -235 -3 -18 -44 -19 -1433 -16 -787 2 -1438 6 -1447 8 -26 8 -24
81 5 134 12 24 45 64 74 90 49 45 229 158 338 213 73 36 203 75 313 93 210 35
1203 42 1417 9z"/>
<path d="M4803 1131 c-45 -3 -85 -10 -89 -14 -20 -20 35 -27 221 -26 221 0
280 6 280 29 0 13 -26 15 -165 16 -91 0 -202 -2 -247 -5z"/>
<path d="M4520 1028 c-379 -11 -541 -29 -475 -54 10 -4 164 -4 344 -1 297 5
622 -1 982 -19 132 -7 137 -6 148 14 9 17 8 23 -6 30 -48 24 -613 42 -993 30z"/>
</g>
</svg>
