<?xml version="1.0" standalone="no"?>
<!DOCTYPE svg PUBLIC "-//W3C//DTD SVG 20010904//EN"
 "http://www.w3.org/TR/2001/REC-SVG-20010904/DTD/svg10.dtd">
<svg version="1.0" xmlns="http://www.w3.org/2000/svg"
 width="1024.000000pt" height="1024.000000pt" viewBox="0 0 1024.000000 1024.000000"
 preserveAspectRatio="xMidYMid meet">
<metadata>
Created by potrace 1.16, written by Peter Selinger 2001-2019
</metadata>
<g transform="translate(0.000000,1024.000000) scale(0.100000,-0.100000)"
fill="#000000" stroke="none">
<path d="M0 5120 l0 -5120 5120 0 5120 0 0 5120 0 5120 -5120 0 -5120 0 0
-5120z m5184 3677 c9 -7 28 -37 41 -67 12 -30 39 -92 58 -137 68 -155 72 -239
16 -309 l-30 -38 28 -11 c103 -38 179 -124 203 -230 5 -23 11 -29 26 -27 64
11 234 13 287 3 233 -45 577 -195 1016 -444 441 -250 504 -284 696 -379 331
-163 474 -195 599 -134 63 31 108 87 120 149 3 18 17 45 30 61 l23 30 28 -28
c24 -24 27 -32 21 -69 -19 -123 -131 -255 -252 -299 -35 -13 -64 -26 -64 -29
0 -4 19 -38 42 -75 80 -132 237 -474 478 -1039 178 -417 175 -410 278 -635 84
-185 181 -374 291 -567 l86 -153 56 0 c40 0 63 -5 79 -18 l23 -19 -29 -49
c-166 -288 -435 -453 -846 -519 -246 -39 -641 -37 -848 5 -277 56 -542 200
-767 413 -92 88 -157 172 -147 188 3 5 17 9 32 9 24 0 34 12 79 88 175 298
325 609 563 1172 272 643 438 1005 517 1129 19 29 33 54 31 55 -2 1 -43 8 -92
15 -104 14 -253 68 -479 173 -555 257 -961 406 -1229 452 -147 25 -530 76
-573 76 -23 0 -25 -4 -25 -47 0 -27 -7 -70 -15 -97 -17 -55 -69 -141 -90 -150
-7 -2 -119 -8 -248 -12 l-233 -7 -48 28 c-80 47 -124 125 -128 231 l-2 54 -36
0 c-113 0 -437 -56 -600 -104 -259 -75 -615 -209 -904 -338 -467 -209 -550
-241 -678 -263 l-37 -6 31 -52 c42 -71 173 -333 213 -426 18 -42 66 -152 108
-246 41 -93 134 -309 207 -480 226 -532 351 -795 513 -1082 89 -157 93 -163
124 -163 57 0 53 -22 -20 -118 -44 -58 -241 -212 -387 -303 -154 -95 -333
-166 -495 -194 -315 -55 -761 -31 -1055 56 -125 37 -297 120 -379 183 -81 62
-173 166 -226 253 -45 73 -45 73 -25 93 15 15 33 20 78 20 66 0 51 -15 155
165 158 275 307 592 582 1240 70 165 148 345 172 400 24 55 56 127 71 160 42
95 198 406 227 453 19 31 23 43 13 46 -7 3 -31 10 -53 17 -158 47 -276 174
-304 325 -10 55 -1 84 28 84 35 0 69 -39 91 -105 46 -138 168 -189 346 -145
152 38 476 196 874 425 405 233 574 321 813 421 231 97 377 134 522 134 l95 0
0 33 c0 56 62 134 146 183 l43 26 -24 26 c-14 14 -30 49 -36 77 -10 43 -9 61
6 111 17 61 163 364 175 364 3 0 14 -6 24 -13z m208 -1589 c15 -12 18 -122 27
-1173 6 -638 13 -1191 16 -1230 7 -94 -10 -803 -19 -813 -4 -4 -96 -9 -204
-13 -146 -4 -173 -6 -102 -9 52 -2 104 -3 115 -3 128 6 244 5 262 -1 42 -14
56 -54 145 -391 28 -107 31 -136 32 -270 2 -240 -4 -304 -28 -317 -14 -8 -159
-12 -444 -12 -395 -1 -424 0 -437 17 -19 27 -29 278 -15 432 13 151 25 231 51
336 36 148 76 206 146 216 l38 5 -8 106 c-4 59 -9 783 -10 1610 -2 1326 0
1504 13 1512 24 15 403 13 422 -2z m468 -4258 c489 -43 805 -209 1026 -540 71
-107 101 -180 90 -223 l-6 -24 -1776 0 -1776 -1 4 77 c8 138 83 252 250 382
235 181 451 266 777 305 221 26 1197 43 1411 24z"/>
<path d="M5143 8587 c-52 -79 -67 -121 -68 -188 0 -54 4 -72 25 -102 21 -31
31 -37 61 -37 50 0 88 41 95 106 5 43 1 61 -35 140 -23 51 -41 97 -41 103 0
20 -15 11 -37 -22z"/>
<path d="M5040 8133 c-70 -36 -94 -70 -96 -135 -2 -61 -4 -62 -114 -72 -238
-22 -419 -71 -645 -176 -44 -21 -114 -52 -155 -70 -162 -70 -371 -180 -725
-379 -236 -133 -502 -265 -635 -314 -91 -34 -177 -53 -265 -60 l-40 -3 30 -12
c58 -25 144 -26 239 -2 104 26 189 60 516 210 485 223 757 329 1060 414 66 18
434 92 506 102 106 13 154 -29 154 -137 0 -66 26 -121 82 -176 l43 -42 209 7
210 7 23 46 c13 25 28 77 34 115 6 38 12 83 15 99 3 17 14 41 25 55 20 23 27
25 113 25 107 0 296 -31 522 -86 306 -74 605 -186 1079 -404 528 -243 618
-272 760 -245 36 7 65 16 65 20 0 4 -33 10 -74 13 -47 3 -115 19 -183 42 -115
39 -416 183 -598 286 -143 81 -929 473 -1065 532 -247 106 -361 131 -551 122
-119 -6 -138 -5 -152 10 -10 9 -17 24 -17 34 0 32 -51 119 -85 146 -85 64
-193 75 -285 28z m208 -127 c89 -46 57 -198 -48 -226 -53 -14 -106 4 -130 43
-25 40 -25 73 -1 117 36 70 116 99 179 66z"/>
<path d="M7842 6540 c-156 -319 -208 -433 -336 -740 -43 -102 -84 -198 -91
-215 -7 -16 -41 -95 -75 -175 -122 -285 -165 -378 -291 -625 -58 -115 -132
-252 -162 -304 -31 -52 -54 -98 -51 -103 4 -7 2324 -11 2324 -4 0 1 -32 58
-71 127 -77 133 -226 422 -273 529 -16 36 -44 97 -62 135 -18 39 -73 167 -123
285 -51 118 -102 240 -116 270 -13 30 -68 159 -122 285 -53 127 -166 367 -249
535 l-152 305 -150 -305z"/>
<path d="M2350 6563 c-72 -147 -150 -307 -172 -357 -78 -177 -107 -242 -148
-341 -325 -775 -486 -1114 -689 -1457 l-22 -37 1165 0 c1244 -1 1186 -4 1151
46 -33 46 -152 268 -237 438 -111 222 -162 338 -426 960 -61 143 -135 314
-165 380 -92 204 -307 635 -317 635 -4 0 -68 -120 -140 -267z"/>
<path d="M2185 4310 c-641 -5 -840 -9 -872 -19 -24 -8 -43 -16 -43 -20 0 -14
56 -88 88 -116 137 -120 341 -235 497 -279 171 -49 544 -93 699 -83 200 14
408 73 631 182 220 107 425 250 425 295 0 51 15 51 -1425 40z m1063 -176 c-26
-27 -202 -44 -442 -45 -299 0 -489 21 -470 52 5 8 29 10 78 5 219 -21 378 -25
506 -15 356 28 353 28 328 3z m-226 -133 c20 -4 25 -10 19 -20 -7 -11 -51 -13
-220 -13 -116 0 -215 3 -221 7 -22 14 -8 24 38 28 80 6 355 5 384 -2z"/>
<path d="M7005 4309 c-66 -3 -121 -7 -122 -8 -12 -6 3 -34 35 -66 57 -59 346
-272 415 -307 210 -106 490 -148 852 -128 208 12 363 39 519 91 230 76 394
175 480 289 52 69 56 98 16 116 -29 13 -1987 25 -2195 13z m1828 -138 c7 -7 4
-13 -9 -18 -24 -10 -910 -11 -920 0 -4 4 -4 10 0 14 9 9 606 22 790 18 71 -2
133 -8 139 -14z"/>
<path d="M5033 6728 c4 -248 7 -955 7 -1570 l0 -1118 149 0 149 0 9 98 c10
125 10 857 -1 2075 l-8 967 -156 0 -155 0 6 -452z"/>
<path d="M5004 3920 c-46 -10 -96 -44 -116 -77 -49 -85 -84 -385 -75 -652 3
-89 9 -166 12 -170 11 -10 677 -1 712 10 27 9 33 17 42 60 14 65 14 375 0 475
-6 42 -22 109 -36 148 -44 122 -104 186 -195 205 -55 12 -296 13 -344 1z"/>
<path d="M5040 2889 c-713 -18 -876 -49 -1172 -230 -179 -109 -206 -128 -256
-178 -60 -60 -90 -122 -94 -193 l-3 -53 1410 -6 c776 -4 1458 -10 1516 -14 59
-4 182 -4 274 0 l167 7 -5 35 c-35 216 -403 513 -722 583 -104 23 -278 41
-495 50 -124 5 -241 9 -260 8 -19 -1 -181 -5 -360 -9z m1349 -415 c38 -8 40
-31 4 -41 -48 -14 -576 -10 -580 4 -6 17 38 23 222 32 218 11 317 12 354 5z
m218 -147 c83 -6 155 -16 159 -20 5 -4 3 -16 -2 -25 -14 -22 -145 -23 -604 -4
-227 10 -445 12 -721 7 -304 -6 -398 -5 -404 4 -4 7 -5 14 -2 17 6 6 200 23
397 34 204 11 984 3 1177 -13z"/>
</g>
</svg>
